<svg style="position: absolute; width: 0; height: 0; overflow: hidden;" version="1.1" xmlns="http://www.w3.org/2000/svg" xmlns:xlink="http://www.w3.org/1999/xlink">
  <defs>
    <symbol id="icon-search" viewBox="0 0 32 32">
      <path d="M19.427 20.427c-1.39 0.99-3.090 1.573-4.927 1.573-4.694 0-8.5-3.806-8.5-8.5s3.806-8.5 8.5-8.5c4.694 0 8.5 3.806 8.5 8.5 0 2.347-0.951 4.472-2.49 6.010l5.997 5.997c0.275 0.275 0.268 0.716-0.008 0.992-0.278 0.278-0.72 0.28-0.992 0.008l-6.081-6.081zM14.5 21c4.142 0 7.5-3.358 7.5-7.5s-3.358-7.5-7.5-7.5c-4.142 0-7.5 3.358-7.5 7.5s3.358 7.5 7.5 7.5v0z"></path>
    </symbol>
    <symbol id="icon-beaker" viewBox="0 0 27 32">
      <path d="M17.5 1c0.276 0 0.5-0.224 0.5-0.5s-0.224-0.5-0.5-0.5h-9c-0.276 0-0.5 0.224-0.5 0.5s0.224 0.5 0.5 0.5h9zM0.99 27.635c-1.074 1.511-0.954 2.498-0.664 3.060 0.307 0.595 1.107 1.305 3.174 1.305h20c2.067 0 2.867-0.71 3.174-1.306 0.29-0.562 0.41-1.549-0.648-3.034l-6.219-9.95-0.088-0.124c-0.447-0.638-2.719-4.564-2.719-7.836v-7.25c0-0.276-0.224-0.5-0.5-0.5h-7c-0.276 0-0.5 0.224-0.5 0.5v7.25c0 3.491-2.465 7.957-2.493 8.005l-5.517 9.88zM25.786 30.235c-0.251 0.487-1.084 0.765-2.286 0.765h-20c-1.202 0-2.035-0.278-2.286-0.765-0.229-0.444-0.020-1.162 0.62-2.066l4.999-8.948 0.007 0.004c0.91 0.525 1.851 1.068 3.719 1.068s2.81-0.542 3.719-1.066c0.833-0.48 1.619-0.934 3.22-0.934 0.607 0 1.133 0.075 1.617 0.21l6.080 9.712c0.611 0.858 0.82 1.576 0.591 2.020zM10 9.75v-6.75h6v6.75c0 2.84 1.516 6.042 2.404 7.602-0.29-0.033-0.585-0.059-0.905-0.059-1.869 0-2.81 0.542-3.719 1.066-0.833 0.48-1.619 0.934-3.22 0.934s-2.387-0.454-3.219-0.934l-0.019-0.011 0.046-0.082c0.025-0.040 2.632-4.686 2.632-8.516z"></path>
    </symbol>
    <symbol id="icon-upload" viewBox="0 0 42 32">
      <path d="M33.958 12.988c-0.427-6.612-5.025-12.988-13.458-12.988-7.713 0-13.661 5.733-13.976 13.384-4.22 1.313-6.524 5.829-6.524 9.116 0 5.061 4.206 9.5 9 9.5h6.5c0.276 0 0.5-0.224 0.5-0.5s-0.224-0.5-0.5-0.5h-6.5c-4.262 0-8-3.972-8-8.5 0-3.051 2.674-8.5 8-8.5h1.5c0.276 0 0.5-0.224 0.5-0.5s-0.224-0.5-0.5-0.5h-1.5c-0.509 0-0.99 0.057-1.459 0.139 0.392-5.99 4.945-12.139 12.959-12.139 8.588 0 12.5 6.739 12.5 13v1.5c0 0.276 0.224 0.5 0.5 0.5s0.5-0.224 0.5-0.5v-1.5c0-0.003 0-0.006 0-0.009 3.019 0.331 7 3.571 7 8.509 0 3.826-3.691 8.5-8 8.5h-7.5c-3.238 0-4.5-1.262-4.5-4.5v-13.717l4.078 4.070c0.098 0.098 0.226 0.147 0.354 0.147s0.256-0.049 0.354-0.146c0.195-0.195 0.195-0.513 0-0.707l-4.461-4.452c-0.594-0.592-1.055-0.592-1.648 0l-4.461 4.452c-0.195 0.194-0.195 0.512 0 0.707s0.512 0.195 0.707 0l4.077-4.071v13.717c0 3.804 1.696 5.5 5.5 5.5h7.5c4.847 0 9-5.224 9-9.5 0-5.167-4.223-9.208-8.042-9.512z"></path>
    </symbol>
    <symbol id="icon-live" viewBox="0 0 32 32">
      <path d="M12 16c0-2.209 1.791-4 4-4s4 1.791 4 4c0 2.209-1.791 4-4 4s-4-1.791-4-4zM20.761 7.204c3.12 1.692 5.239 4.997 5.239 8.796s-2.119 7.104-5.239 8.796c1.377-2.191 2.239-5.321 2.239-8.796s-0.862-6.605-2.239-8.796zM9 16c0 3.475 0.862 6.605 2.239 8.796-3.12-1.692-5.239-4.997-5.239-8.796s2.119-7.104 5.239-8.796c-1.377 2.191-2.239 5.321-2.239 8.796zM3 16c0 5.372 1.7 10.193 4.395 13.491-4.447-2.842-7.395-7.822-7.395-13.491s2.948-10.649 7.395-13.491c-2.695 3.298-4.395 8.119-4.395 13.491zM24.605 2.509c4.447 2.842 7.395 7.822 7.395 13.491s-2.948 10.649-7.395 13.491c2.695-3.298 4.395-8.119 4.395-13.491s-1.7-10.193-4.395-13.491z"></path>
    </symbol>
    <symbol id="icon-refresh" viewBox="0 0 24 28">
      <path d="M23.609 16.5c0 0.031 0 0.078-0.016 0.109-1.328 5.531-5.891 9.391-11.656 9.391-3.047 0-6-1.203-8.219-3.313l-2.016 2.016c-0.187 0.187-0.438 0.297-0.703 0.297-0.547 0-1-0.453-1-1v-7c0-0.547 0.453-1 1-1h7c0.547 0 1 0.453 1 1 0 0.266-0.109 0.516-0.297 0.703l-2.141 2.141c1.469 1.375 3.422 2.156 5.437 2.156 2.781 0 5.359-1.437 6.813-3.813 0.375-0.609 0.562-1.203 0.828-1.828 0.078-0.219 0.234-0.359 0.469-0.359h3c0.281 0 0.5 0.234 0.5 0.5zM24 4v7c0 0.547-0.453 1-1 1h-7c-0.547 0-1-0.453-1-1 0-0.266 0.109-0.516 0.297-0.703l2.156-2.156c-1.484-1.375-3.437-2.141-5.453-2.141-2.781 0-5.359 1.437-6.813 3.813-0.375 0.609-0.562 1.203-0.828 1.828-0.078 0.219-0.234 0.359-0.469 0.359h-3.109c-0.281 0-0.5-0.234-0.5-0.5v-0.109c1.344-5.547 5.953-9.391 11.719-9.391 3.063 0 6.047 1.219 8.266 3.313l2.031-2.016c0.187-0.187 0.438-0.297 0.703-0.297 0.547 0 1 0.453 1 1z"></path>
    </symbol>
    <symbol id="icon-back" viewBox="0 0 24 24">
      <path d="M15.422 16.078l-1.406 1.406-6-6 6-6 1.406 1.406-4.594 4.594z"></path>
    </symbol>
    <symbol id="icon-wifi" viewBox="0 0 24 24">
      <path d="M4.4 11.8c-0.4 0.4-0.5 1-0.1 1.4 0.2 0.2 0.5 0.4 0.8 0.4 0.2 0 0.5-0.1 0.6-0.2 3.7-3.1 9.1-3.1 12.8 0 0.4 0.4 1.1 0.3 1.4-0.1 0.4-0.4 0.3-1.1-0.1-1.4-4.5-3.8-11-3.8-15.4-0.1z"></path>
      <path d="M23.2 8.2c-6.4-5.6-16.1-5.6-22.5 0-0.4 0.4-0.5 1-0.1 1.4 0.3 0.3 0.5 0.4 0.8 0.4 0.2 0 0.5-0.1 0.7-0.2 5.7-5 14.2-5 19.8 0 0.4 0.4 1 0.3 1.4-0.1 0.4-0.5 0.4-1.1-0.1-1.5z"></path>
      <path d="M8 15.3c-0.5 0.3-0.6 0.9-0.2 1.4 0.3 0.4 0.9 0.6 1.4 0.2 1.7-1.2 4.1-1.2 5.8 0 0.2 0.1 0.4 0.2 0.6 0.2 0.3 0 0.6-0.1 0.8-0.4 0.3-0.5 0.2-1.1-0.2-1.4-2.6-1.7-5.8-1.7-8.2 0z"></path>
      <path d="M11.3 19.3c-0.2 0.2-0.3 0.4-0.3 0.7s0.1 0.5 0.3 0.7c0.2 0.2 0.4 0.3 0.7 0.3s0.5-0.1 0.7-0.3c0.2-0.2 0.3-0.5 0.3-0.7s-0.1-0.5-0.3-0.7c-0.4-0.4-1-0.4-1.4 0z"></path>
    </symbol>
    <symbol id="icon-wifioff" viewBox="0 0 24 24">
      <path d="M23.7 22.3l-16.9-16.9c0 0 0 0 0 0l-5.1-5.1c-0.4-0.4-1-0.4-1.4 0s-0.4 1 0 1.4l4.1 4.1c-1.3 0.7-2.5 1.5-3.6 2.5-0.4 0.4-0.5 1-0.1 1.4 0.2 0.2 0.4 0.3 0.7 0.3 0.2 0 0.5-0.1 0.7-0.3 1.1-1 2.4-1.8 3.8-2.4l2.3 2.3c-1.4 0.5-2.7 1.2-3.9 2.1-0.4 0.4-0.5 1-0.1 1.4 0.2 0.2 0.5 0.4 0.8 0.4 0.2 0 0.5-0.1 0.6-0.2 1.2-1 2.7-1.7 4.2-2.1l2.8 2.8c-1.6-0.1-3.3 0.3-4.6 1.3-0.5 0.3-0.6 0.9-0.2 1.4 0.3 0.4 0.9 0.6 1.4 0.2 1.7-1.2 4.1-1.2 5.8 0 0.2 0.1 0.4 0.2 0.6 0.2 0.1 0 0.1 0 0.2 0l6.6 6.6c0.2 0.2 0.5 0.3 0.7 0.3s0.5-0.1 0.7-0.3c0.3-0.4 0.3-1-0.1-1.4z"></path>
      <path d="M15.8 10.6c-0.2 0.5 0 1.1 0.5 1.3 0.7 0.4 1.4 0.8 2.1 1.4 0.2 0.2 0.4 0.2 0.6 0.2 0.3 0 0.6-0.1 0.8-0.4 0.4-0.4 0.3-1.1-0.1-1.4-0.8-0.6-1.6-1.2-2.5-1.6-0.5-0.2-1.1 0-1.4 0.5z"></path>
      <path d="M10.8 6c4-0.3 8.1 1 11.1 3.7 0.2 0.2 0.4 0.2 0.7 0.2s0.6-0.1 0.8-0.3c0.4-0.4 0.3-1-0.1-1.4-3.4-3-8-4.6-12.6-4.2-0.6 0-1 0.5-0.9 1.1 0 0.6 0.4 1 1 0.9z"></path>
      <path d="M11.3 19.3c-0.2 0.2-0.3 0.4-0.3 0.7s0.1 0.5 0.3 0.7c0.2 0.2 0.4 0.3 0.7 0.3s0.5-0.1 0.7-0.3c0.2-0.2 0.3-0.5 0.3-0.7s-0.1-0.5-0.3-0.7c-0.4-0.4-1-0.4-1.4 0z"></path>
    </symbol>
    <symbol id="icon-caution" viewBox="0 0 35 32">
      <path d="M21.799 2.954c-1.105-1.904-2.609-2.954-4.235-2.954s-3.131 1.050-4.236 2.954l-12.269 21.133c-1.12 1.947-1.24 3.969-0.33 5.546 0.866 1.5 2.565 2.363 4.664 2.367h24.341c0 0 0 0 0.001 0 2.102-0.004 3.804-0.864 4.667-2.361 0.905-1.567 0.783-3.581-0.335-5.525l-12.268-21.16zM33.537 29.139c-0.681 1.18-2.067 1.858-3.804 1.861h-24.339c-1.731-0.003-3.115-0.684-3.799-1.867-0.727-1.26-0.606-2.917 0.33-4.546l12.268-21.131c0.919-1.584 2.116-2.456 3.371-2.456s2.452 0.872 3.37 2.456l12.268 21.157c0.935 1.626 1.057 3.276 0.335 4.526zM17.564 20c0.276 0 0.5-0.224 0.5-0.5v-10c0-0.276-0.224-0.5-0.5-0.5s-0.5 0.224-0.5 0.5v10c0 0.276 0.224 0.5 0.5 0.5zM17.5 22.5c-1.103 0-2 0.897-2 2s0.897 2 2 2 2-0.897 2-2-0.897-2-2-2zM17.5 25.5c-0.551 0-1-0.448-1-1s0.449-1 1-1 1 0.448 1 1-0.449 1-1 1z"></path>
    </symbol>
    <symbol id="icon-pictures" viewBox="0 0 32 32">
      <path d="M27.733 19.635l-1.316 4.914-0.037 0.010-1.438 5.367-9.296-2.49-0.111 0.029-9.788-2.622-0.017-0.064-2.605-0.699 0.493-1.841 0.032 0.009 4.829-18.022-0.032-0.009 0.509-1.897 17.105 4.584 0.016-0.056 4.711 1.262-3.072 11.46 0.017 0.065zM28.382 9.498l-18.023-4.829-3.558 13.28 18.021 4.828 3.56-13.279zM12.234 13.392l1.194 2.045 3.107-2.925 1.583 2.766 4.185-3.689 1.047 8.559-13.822-3.706 2.706-3.050zM13.127 11.38c-0.785-0.211-1.252-1.019-1.041-1.804s1.018-1.253 1.804-1.042c0.785 0.211 1.252 1.019 1.041 1.804s-1.018 1.253-1.804 1.042zM21.64 4.479l-0.414 0.111-3.795-1.017 5.598-1.5 0.866 3.231-2.19-0.587-0.065-0.238zM3.617 9.309l1.242 4.635-1.017 3.794-2.63-9.818 5.668-1.519-0.587 2.19-2.676 0.718zM7.058 29.736l-1.018-3.798 7.597 2.036-6.579 1.762z"></path>
    </symbol>
  </defs>
</svg>
